<svg width="25" height="24" viewBox="0 0 25 24" fill="none" xmlns="http://www.w3.org/2000/svg">
<path d="M4.33382 3.46212C6.69128 1.11022 10.1322 -0.117353 13.5017 0.00884663C15.4782 0.135046 17.4546 0.628373 19.1453 1.64944C19.8478 2.07393 20.5503 2.52136 21.098 3.11794C20.5622 3.71452 19.9431 4.24226 19.3715 4.8159C18.7762 5.37806 18.2047 5.97464 17.5856 6.51385C16.6212 5.66488 15.4186 5.02241 14.1089 4.85032C12.7516 4.70117 11.3109 4.75853 10.0727 5.35511C8.67964 5.97464 7.52472 6.98423 6.75081 8.2577C6.48887 8.68219 6.31028 9.15257 6.09596 9.6C4.71482 8.62482 3.39322 7.56934 2.02399 6.57122C2.58359 5.401 3.36941 4.34552 4.33382 3.46212Z" fill="#EA4335"/>
<path d="M1.98591 6.54546C3.34113 7.58045 4.64921 8.66303 6.01621 9.68613C5.81587 10.6735 5.50948 11.6847 5.69803 12.7078C5.75695 13.267 5.92193 13.8142 6.01621 14.3615C4.95561 15.2061 3.87143 16.0389 2.81083 16.8954C2.53978 17.1095 2.25696 17.2999 1.95056 17.4545C1.20814 15.9794 0.783896 14.3496 0.713189 12.6959C0.654266 11.6134 0.724969 10.5189 0.93709 9.4482C1.19635 8.46079 1.46739 7.44959 1.98591 6.54546Z" fill="#FBBC04"/>
<path d="M13.1781 10.0449C16.491 10.0449 19.8038 10.0449 23.1166 10.0449C23.5396 10.0449 23.9625 10.0109 24.3854 10.0788C25.1137 13.5539 24.3266 17.3912 21.9301 20.1305C21.6717 20.4248 21.4132 20.753 21.0608 20.9455C19.7333 20.0059 18.4763 18.9985 17.1606 18.0477C18.3119 17.2214 19.1929 15.9649 19.3456 14.5726C17.2781 14.5387 15.2105 14.5839 13.1429 14.55C13.0842 13.3728 13.1429 12.1842 13.1194 11.007C13.1311 10.6901 13.0724 10.3618 13.1781 10.0449Z" fill="#4284F4"/>
<path d="M2.90616 16.8547C3.97907 16.025 5.07583 15.2182 6.14874 14.4C6.41101 14.8725 6.5779 15.4026 6.88785 15.8521C7.86539 17.3964 9.41516 18.5373 11.2272 19.0214C12.4908 19.2864 13.8022 19.2864 15.0539 18.9983C15.793 18.8139 16.4725 18.4682 17.1401 18.1109C18.4753 19.079 19.7509 20.1162 21.098 21.0612C20.7761 21.4646 20.335 21.7412 19.9058 22.0293C17.9031 23.4007 15.4235 23.9424 13.0035 24C10.5596 23.9539 8.11574 23.2855 6.10105 21.9256C4.36055 20.7731 2.95384 19.2173 2.02399 17.3964C2.34586 17.2466 2.63197 17.0622 2.90616 16.8547Z" fill="#34A853"/>
</svg>
