<svg width="25" height="24" viewBox="0 0 25 24" fill="none" xmlns="http://www.w3.org/2000/svg">
<path fill-rule="evenodd" clip-rule="evenodd" d="M22.922 0H2.50914C1.533 0 0.702881 0.773614 0.702881 1.7276V22.2724C0.702881 23.2264 1.24696 24 2.2231 24H22.636C23.6141 24 24.6563 23.2264 24.6563 22.2724V1.7276C24.6563 0.775618 23.8982 0 22.922 0ZM9.82817 9.14305H13.0526V10.7905H13.0886C13.5807 9.90263 15.0329 9.00075 16.8272 9.00075C20.2737 9.00075 21.2338 10.8346 21.2338 14.2296V20.5729H17.8113V14.8549C17.8113 13.3358 17.2052 12.001 15.789 12.001C14.0688 12.001 13.2487 13.1674 13.2487 15.0834V20.5729H9.82617V9.14305H9.82817ZM4.12536 20.5729H7.54785V9.14505H4.12536V20.5729ZM7.97391 5.14472C7.97391 6.32919 7.01778 7.28718 5.83561 7.28718C4.65344 7.28718 3.69731 6.32919 3.69731 5.14472C3.69731 3.96025 4.65344 3.00226 5.83561 3.00226C7.01778 3.00226 7.97391 3.96025 7.97391 5.14472Z" fill="#2D6EAE"/>
</svg>
